<?xml version="1.0" encoding="utf-8"?>
<!-- Generator: Adobe Illustrator 22.0.0, SVG Export Plug-In . SVG Version: 6.00 Build 0)  -->
<svg version="1.1" id="Layer_1" xmlns="http://www.w3.org/2000/svg" xmlns:xlink="http://www.w3.org/1999/xlink" x="0px" y="0px"
	 viewBox="0 0 56.5 13.3" style="enable-background:new 0 0 56.5 13.3;" xml:space="preserve">
<style type="text/css">
	.st0{fill:#FFFFFF;}
</style>
<g>
	<path class="st0" d="M5.6,4.6c0.5-0.2,1.1-0.3,1.7-0.4C7.4,4,7.4,3.9,7.4,3.8C7.6,3.9,7.8,3.9,7.9,4v0.1L8.6,4c0.3,0,0.6,0,0.6,0.1
		c0.1,0.1,0.3,0.4,0.3,0.5c0,0.1-0.1,0.1-0.2,0.1C8.9,4.7,8.4,4.7,7.8,4.8C7.5,6.2,7.4,7.6,7.2,9.2c0.1,0,0.3-0.1,0.3-0.1
		C7.5,9.4,7.1,10,7.1,10C7.1,10.3,6.5,10,6.4,9.9c0.2-1.4,0.5-3.6,0.7-5.1C6.8,4.9,6.3,5,5.9,5.1C5.7,5.2,5.5,4.6,5.6,4.6z"/>
	<path class="st0" d="M9.3,7.3c0.2-0.5,0.4-1.2,0.5-1.7c0.1-0.2,0.3-0.3,0.5-0.2c0.2,0.1,0.3,0.1,0.3,0.3c0,0.3-0.3,0.8-0.3,1.4
		c0,0.1,0.1,0.2,0.2,0.2c0.3,0,0.5-0.5,0.5-0.5c0.1,0,0.1,0.1,0.1,0.1c0,0.3-0.3,0.7-0.7,0.7C10,7.7,9.8,7.4,9.8,7
		C9.6,7.5,9.2,8.5,9.2,9.8C9.1,9.9,8.5,9.7,8.5,9.5c0-0.2,0.1-0.6,0.2-2.3c0-0.8,0.1-1.6,0.3-1.6c0.2,0,0.5,0.2,0.5,0.2
		C9.5,6.2,9.3,6.9,9.3,7.3L9.3,7.3z"/>
	<path class="st0" d="M12.1,5.3c0.3,0,0.7,0.2,0.7,1c0,1.1-0.3,2-1,2c-0.3,0-0.5-0.3-0.5-0.3s-0.2,0.5-0.2,1.1
		c0,0.4,0.2,0.7,0.6,0.7c0.6,0,1.1-1,1.1-1.6c0,0,0-0.1,0.1-0.1c0.1,0,0.2,0.2,0.2,0.4c0,0.7-0.5,1.9-1.4,1.9
		c-0.6,0-1.2-0.6-1.2-1.6C10.7,7.4,11.3,5.3,12.1,5.3z M11.6,7.8c0.3,0,0.5-0.9,0.5-1.7c0-0.3-0.1-0.4-0.1-0.4
		c-0.1,0-0.1,0.1-0.1,0.2c-0.2,0.5-0.5,1.1-0.5,1.7C11.4,7.6,11.5,7.8,11.6,7.8z"/>
	<path class="st0" d="M15,9.4c-0.1,0.3-0.5,0.6-0.9,0.6C13.5,10,13,9.4,13,8.3c0-1.5,0.7-3,1.7-3c0.6,0,0.8,0.3,0.8,0.6
		c0,0.1,0,0.1,0,0.1c0.1,0,0.4,0.1,0.3,0.2c-0.3,0.9-0.5,1.8-0.5,2.4c0,0.4,0.1,0.6,0.3,0.6c0.5,0,0.6-0.5,0.6-1c0,0,0.2,0,0.2,0.2
		c0,0.5-0.3,1.4-1,1.4C15.3,9.9,15,9.6,15,9.4L15,9.4z M14.1,9.4c0.5,0,0.9-2,0.9-2.3c0,0-0.3-0.1-0.4-0.2c0.2-0.2,0.3-0.5,0.3-0.9
		c0-0.1,0-0.3-0.2-0.3c-0.6,0-1,2-1,2.8C13.7,9.2,13.8,9.4,14.1,9.4z"/>
	<path class="st0" d="M17,6.7c0,0,1.5,0.7,1.5,2.1c0,1-0.5,1.3-1.1,1.3c-0.7,0-1.4-0.8-1.4-1.4c0-0.3,0.2-1,0.5-1
		C16.7,7.8,17,8,17,8.1c0,0.3-0.3,0.9-0.3,1c0,0.1,0.1,0.5,0.6,0.5c0.5,0,0.8-0.4,0.8-1C18,7.7,17.2,7,16.7,7
		c-0.2-0.1-0.2-0.4-0.2-0.6c0.1-0.3,2-1.1,2.2-1.1c0.1,0,0.3,0.2,0.3,0.3c0,0.3-0.6,0.8-0.8,0.8c-0.1,0-0.1-0.2-0.2-0.2
		C17.6,6.3,17,6.6,17,6.7L17,6.7z"/>
	<path class="st0" d="M20.4,8.6C20.3,9,20,9.9,19.6,9.9c-0.3,0-1-0.6-1-1.1c0-1,0.5-3.1,0.8-3.1c0.1,0,0.3,0.1,0.4,0.2
		c-0.3,1-0.5,2.2-0.5,3.2l0.1,0.1c0.6-1,1.1-2.7,1.2-3.5c0-0.1,0.1-0.1,0.1-0.1c0.2,0,0.6,0.2,0.6,0.3c0,0.3-0.4,2.1-0.4,2.7
		c0,0.2,0.1,0.6,0.3,0.6c0.3,0,0.5-0.7,0.5-0.7c0.1,0,0.2,0,0.2,0.2c0,0.3-0.5,1.1-0.9,1.1C20.5,9.8,20.4,9.1,20.4,8.6L20.4,8.6z"/>
	<path class="st0" d="M22.6,7.3c0.2-0.5,0.4-1.2,0.5-1.7c0.1-0.2,0.3-0.3,0.5-0.2c0.2,0.1,0.3,0.1,0.3,0.3c0,0.3-0.3,0.8-0.3,1.4
		c0,0.1,0.1,0.2,0.2,0.2c0.3,0,0.5-0.5,0.5-0.5c0.1,0,0.1,0.1,0.1,0.1c0,0.3-0.3,0.7-0.7,0.7C23.1,7.7,23,7.3,23,7
		c-0.2,0.5-0.6,1.4-0.6,2.7c-0.2,0.1-0.7-0.1-0.7-0.3c0-0.2,0.1-0.6,0.2-2.3c0-0.8,0.1-1.6,0.3-1.6c0.2,0,0.5,0.2,0.5,0.2
		c0,0.5-0.1,1.1-0.2,1.5L22.6,7.3z"/>
	<path class="st0" d="M25.3,5.3c0.3,0,0.7,0.2,0.7,1c0,1.1-0.3,2-1,2c-0.3,0-0.5-0.3-0.5-0.3s-0.2,0.5-0.2,1.1
		c0,0.4,0.2,0.7,0.6,0.7c0.6,0,1.1-1,1.1-1.6c0,0,0-0.1,0.1-0.1s0.2,0.2,0.2,0.4c0,0.7-0.5,1.9-1.4,1.9c-0.6,0-1.2-0.6-1.2-1.6
		C23.9,7.4,24.6,5.3,25.3,5.3z M24.9,7.8c0.3,0,0.5-0.9,0.5-1.7c0-0.3-0.1-0.4-0.1-0.4s-0.1,0.1-0.1,0.2C25,6.4,24.7,7,24.7,7.6
		C24.7,7.6,24.7,7.8,24.9,7.8z"/>
	<path class="st0" d="M28.5,4.6c-0.1,0.6-0.3,1.3-0.4,2c0.7-0.1,1.4-0.2,1.4-0.2l0.2,0.2c0.2-1.1,0.3-2.2,0.5-2.8
		c0-0.1,0.1-0.2,0.2-0.2s0.4,0.1,0.5,0.2c-0.4,1.9-0.9,5-0.9,6.1c0,0.2-0.6-0.1-0.7-0.1c-0.1-0.2-0.2-0.5-0.2-0.7
		c0.1-0.1,0.1,0.1,0.1,0c0.1-0.6,0.1-1.3,0.2-2c-0.4,0-1.1,0.1-1.6,0.2c-0.2,1.1-0.3,2.2-0.3,3.1c0,0.2-0.6-0.1-0.7-0.2
		c0-0.7,0.1-1.8,0.3-2.7l-0.3,0.1c-0.2,0.1-0.5-0.4-0.3-0.5C26.6,7,27,7,27.3,6.9c0.2-1.2,0.4-2.3,0.6-3C28.2,4,28.5,4,28.6,4.1
		C28.6,4.2,28.7,4.4,28.5,4.6L28.5,4.6z"/>
	<path class="st0" d="M32.4,8.6c-0.1,0.4-0.3,1.2-0.7,1.2c-0.3,0-1-0.6-1-1.1c0-1,0.5-3.1,0.8-3.1c0.1,0,0.3,0.1,0.4,0.2
		c-0.3,1-0.5,2.2-0.5,3.2l0.1,0.1c0.6-1,1.1-2.7,1.2-3.5c0-0.1,0.1-0.1,0.1-0.1c0.2,0,0.6,0.2,0.6,0.3c0,0.3-0.4,2.1-0.4,2.7
		c0,0.2,0.1,0.6,0.3,0.6c0.3,0,0.5-0.7,0.5-0.7c0.1,0,0.2,0,0.2,0.2c0,0.3-0.5,1.1-0.9,1.1C32.5,9.8,32.5,9.1,32.4,8.6L32.4,8.6z"/>
	<path class="st0" d="M34.6,3.6c0.2,0,0.6,0.2,0.6,0.3c-0.1,0.3-0.5,1.8-0.6,2.3c0.2-0.5,0.6-0.8,0.8-0.8c0.5,0,1,0.8,1,1.4
		C36.4,7.5,36,10,35,10c-0.9,0-1.3-0.6-1.3-1.7C33.8,7,34.5,3.6,34.6,3.6z M34.4,7.8c0,0-0.1,0.3-0.1,1c0,0.3,0.1,0.6,0.3,0.6
		c0.9,0,1.1-2.8,1.1-2.9c0-0.2,0-0.5-0.2-0.5c-0.5,0-0.9,1.4-1,1.8l0,0L34.4,7.8z"/>
</g>
</svg>
